{
    "asset" : {
        "generator" : "Khronos glTF Blender I/O v3.3.32",
        "version" : "2.0"
    },
    "scene" : 0,
    "scenes" : [
        {
            "name" : "Scene",
            "nodes" : [
                0,
                1,
                2,
                3
            ]
        }
    ],
    "nodes" : [
        {
            "mesh" : 0,
            "name" : "Sphere"
        },
        {
            "mesh" : 1,
            "name" : "Sphere.001",
            "scale" : [
                1.3995189666748047,
                1.3995189666748047,
                1.3995189666748047
            ],
            "translation" : [
                0.773464024066925,
                0.3174198269844055,
                0.5140796899795532
            ]
        },
        {
            "mesh" : 2,
            "name" : "Sphere.002",
            "scale" : [
                1.3995189666748047,
                1.3995189666748047,
                1.3995189666748047
            ],
            "translation" : [
                0.773464024066925,
                0.3174198269844055,
                -0.465644896030426
            ]
        },
        {
            "mesh" : 3,
            "name" : "Sphere.003"
        }
    ],
    "materials" : [
        {
            "doubleSided" : true,
            "name" : "Material.002",
            "pbrMetallicRoughness" : {
                "baseColorFactor" : [
                    0,
                    0.2505497932434082,
                    0.8000000715255737,
                    1
                ],
                "metallicFactor" : 0,
                "roughnessFactor" : 0.5
            }
        },
        {
            "doubleSided" : true,
            "name" : "Material.001",
            "pbrMetallicRoughness" : {
                "baseColorFactor" : [
                    0,
                    0,
                    0,
                    1
                ],
                "metallicFactor" : 0,
                "roughnessFactor" : 0.5
            }
        },
        {
            "doubleSided" : true,
            "name" : "Material.003",
            "pbrMetallicRoughness" : {
                "baseColorFactor" : [
                    0.8000000715255737,
                    0,
                    0.06593114137649536,
                    1
                ],
                "metallicFactor" : 0,
                "roughnessFactor" : 0.5
            }
        }
    ],
    "meshes" : [
        {
            "name" : "Sphere",
            "primitives" : [
                {
                    "attributes" : {
                        "POSITION" : 0,
                        "NORMAL" : 1,
                        "TEXCOORD_0" : 2
                    },
                    "indices" : 3,
                    "material" : 0
                }
            ]
        },
        {
            "name" : "Sphere.001",
            "primitives" : [
                {
                    "attributes" : {
                        "POSITION" : 4,
                        "NORMAL" : 5,
                        "TEXCOORD_0" : 6
                    },
                    "indices" : 7,
                    "material" : 1
                }
            ]
        },
        {
            "name" : "Sphere.002",
            "primitives" : [
                {
                    "attributes" : {
                        "POSITION" : 8,
                        "NORMAL" : 9,
                        "TEXCOORD_0" : 10
                    },
                    "indices" : 7,
                    "material" : 1
                }
            ]
        },
        {
            "name" : "Sphere.003",
            "primitives" : [
                {
                    "attributes" : {
                        "POSITION" : 11,
                        "NORMAL" : 12,
                        "TEXCOORD_0" : 13
                    },
                    "indices" : 14,
                    "material" : 2
                }
            ]
        }
    ],
    "accessors" : [
        {
            "bufferView" : 0,
            "componentType" : 5126,
            "count" : 150,
            "max" : [
                1,
                1,
                1
            ],
            "min" : [
                -0.9999999403953552,
                -1,
                -1
            ],
            "type" : "VEC3"
        },
        {
            "bufferView" : 1,
            "componentType" : 5126,
            "count" : 150,
            "type" : "VEC3"
        },
        {
            "bufferView" : 2,
            "componentType" : 5126,
            "count" : 150,
            "type" : "VEC2"
        },
        {
            "bufferView" : 3,
            "componentType" : 5123,
            "count" : 654,
            "type" : "SCALAR"
        },
        {
            "bufferView" : 4,
            "componentType" : 5126,
            "count" : 97,
            "max" : [
                0.12363734841346741,
                0.12999999523162842,
                0.12999999523162842
            ],
            "min" : [
                -0.12363734841346741,
                -0.12999999523162842,
                -0.12999999523162842
            ],
            "type" : "VEC3"
        },
        {
            "bufferView" : 5,
            "componentType" : 5126,
            "count" : 97,
            "type" : "VEC3"
        },
        {
            "bufferView" : 6,
            "componentType" : 5126,
            "count" : 97,
            "type" : "VEC2"
        },
        {
            "bufferView" : 7,
            "componentType" : 5123,
            "count" : 420,
            "type" : "SCALAR"
        },
        {
            "bufferView" : 8,
            "componentType" : 5126,
            "count" : 97,
            "max" : [
                0.12363734841346741,
                0.12999999523162842,
                0.12999999523162842
            ],
            "min" : [
                -0.12363734841346741,
                -0.12999999523162842,
                -0.12999999523162842
            ],
            "type" : "VEC3"
        },
        {
            "bufferView" : 9,
            "componentType" : 5126,
            "count" : 97,
            "type" : "VEC3"
        },
        {
            "bufferView" : 10,
            "componentType" : 5126,
            "count" : 97,
            "type" : "VEC2"
        },
        {
            "bufferView" : 11,
            "componentType" : 5126,
            "count" : 13,
            "max" : [
                1,
                0.10052931308746338,
                0.3826836049556732
            ],
            "min" : [
                0.46476101875305176,
                -0.7071067690849304,
                -0.38268333673477173
            ],
            "type" : "VEC3"
        },
        {
            "bufferView" : 12,
            "componentType" : 5126,
            "count" : 13,
            "type" : "VEC3"
        },
        {
            "bufferView" : 13,
            "componentType" : 5126,
            "count" : 13,
            "type" : "VEC2"
        },
        {
            "bufferView" : 14,
            "componentType" : 5123,
            "count" : 54,
            "type" : "SCALAR"
        }
    ],
    "bufferViews" : [
        {
            "buffer" : 0,
            "byteLength" : 1800,
            "byteOffset" : 0,
            "target" : 34962
        },
        {
            "buffer" : 0,
            "byteLength" : 1800,
            "byteOffset" : 1800,
            "target" : 34962
        },
        {
            "buffer" : 0,
            "byteLength" : 1200,
            "byteOffset" : 3600,
            "target" : 34962
        },
        {
            "buffer" : 0,
            "byteLength" : 1308,
            "byteOffset" : 4800,
            "target" : 34963
        },
        {
            "buffer" : 0,
            "byteLength" : 1164,
            "byteOffset" : 6108,
            "target" : 34962
        },
        {
            "buffer" : 0,
            "byteLength" : 1164,
            "byteOffset" : 7272,
            "target" : 34962
        },
        {
            "buffer" : 0,
            "byteLength" : 776,
            "byteOffset" : 8436,
            "target" : 34962
        },
        {
            "buffer" : 0,
            "byteLength" : 840,
            "byteOffset" : 9212,
            "target" : 34963
        },
        {
            "buffer" : 0,
            "byteLength" : 1164,
            "byteOffset" : 10052,
            "target" : 34962
        },
        {
            "buffer" : 0,
            "byteLength" : 1164,
            "byteOffset" : 11216,
            "target" : 34962
        },
        {
            "buffer" : 0,
            "byteLength" : 776,
            "byteOffset" : 12380,
            "target" : 34962
        },
        {
            "buffer" : 0,
            "byteLength" : 156,
            "byteOffset" : 13156,
            "target" : 34962
        },
        {
            "buffer" : 0,
            "byteLength" : 156,
            "byteOffset" : 13312,
            "target" : 34962
        },
        {
            "buffer" : 0,
            "byteLength" : 104,
            "byteOffset" : 13468,
            "target" : 34962
        },
        {
            "buffer" : 0,
            "byteLength" : 108,
            "byteOffset" : 13572,
            "target" : 34963
        }
    ],
    "buffers" : [
        {
            "byteLength" : 13680,
            "uri" : "data:application/octet-stream;base64,"
        }
    ]
}
